A vengeful father escapes from hell and chases after the men who killed his daughter and kidnapped his granddaughter.

Director:
Patrick Lussier
Writers:
Todd Farmer, Patrick Lussier
Stars:
Nicolas Cage, Amber Heard and William Fichtner

Media info:

General
Complete name                    : E:\torrent2\Drive Angry 2011 BluRay rip.mkv 1080p AVC DTS 5.1.ACB-Team\Drive Angry 2011 BluRay rip.mkv 1080p AVC DTS 5.1.ACB-Team.mkv
Format                           : Matroska
File size                        : 10.6 GiB
Duration                         : 1h 44mn
Overall bit rate                 : 14.5 Mbps
Movie name                       : movie
Encoded date                     : UTC 2011-05-23 15:51:36
Writing application              : mkvmerge v3.2.0 ('Beginnings') built on Feb 12 2010 16:46:17
Writing library                  : libebml v0.7.9 + libmatroska v0.8.1

Video
ID                               : 1
Format                           : AVC
Format/Info                      : Advanced Video Codec
Format profile                   : High@L4.1
Format settings, CABAC           : Yes
Format settings, ReFrames        : 3 frames
Muxing mode                      : Container profile=Unknown@0.0
Codec ID                         : V_MPEG4/ISO/AVC
Duration                         : 1h 44mn
Bit rate mode                    : Variable
Bit rate                         : 12.8 Mbps
Maximum bit rate                 : 35.0 Mbps
Width                            : 1 920 pixels
Height                           : 1 080 pixels
Display aspect ratio             : 16:9
Frame rate                       : 23.976 fps
Color space                      : YUV
Chroma subsampling               : 4:2:0
Bit depth                        : 8 bits
Scan type                        : Progressive
Bits/(Pixel*Frame)               : 0.258
Stream size                      : 9.25 GiB (88%)
Writing library                  : x264 core 115 r1936 7a9e08d
Encoding settings                : cabac=1 / ref=1 / deblock=1:0:0 / analyse=0x3:0x3 / me=dia / subme=1 / psy=1 / psy_rd=0.00:0.00 / mixed_ref=0 / me_range=16 / chroma_me=1 / trellis=0 / 8x8dct=1 / cqm=0 / deadzone=21,11 / fast_pskip=1 / chroma_qp_offset=0 / threads=3 / sliced_threads=0 / slices=4 / nr=0 / decimate=1 / interlaced=0 / bluray_compat=1 / constrained_intra=0 / bframes=3 / b_pyramid=1 / b_adapt=1 / b_bias=0 / direct=1 / weightb=1 / open_gop=0 / weightp=1 / keyint=24 / keyint_min=1 / scenecut=40 / intra_refresh=0 / rc_lookahead=0 / rc=abr / mbtree=0 / bitrate=12837 / ratetol=1.0 / qcomp=0.60 / qpmin=0 / qpmax=69 / qpstep=4 / vbv_maxrate=35000 / vbv_bufsize=30000 / nal_hrd=vbr / ip_ratio=1.10 / pb_ratio=1.10 / aq=1:1.00

Audio
ID                               : 2
Format                           : DTS
Format/Info                      : Digital Theater Systems
Codec ID                         : A_DTS
Duration                         : 1h 44mn
Bit rate mode                    : Constant
Bit rate                         : 1 510 Kbps
Channel(s)                       : 6 channels
Channel positions                : Front: L C R, Side: L R, LFE
Sampling rate                    : 48.0 KHz
Bit depth                        : 24 bits
Stream size                      : 1.10 GiB (10%)
Language                         : English

Text #1
ID                               : 3
Format                           : VobSub
Muxing mode                      : zlib
Codec ID                         : S_VOBSUB
Codec ID/Info                    : The same subtitle format used on DVDs
Language                         : English

Text #2
ID                               : 4
Format                           : VobSub
Muxing mode                      : zlib
Codec ID                         : S_VOBSUB
Codec ID/Info                    : The same subtitle format used on DVDs
Language                         : Spanish

Text #3
ID                               : 5
Format                           : UTF-8
Codec ID                         : S_TEXT/UTF8
Codec ID/Info                    : UTF-8 Plain Text
Language                         : Dutch

Menu
00:00:00.000                     : en:00:00:00.000
00:08:27.632                     : en:00:08:27.632
00:12:33.586                     : en:00:12:33.586
00:16:32.533                     : en:00:16:32.533
00:19:43.682                     : en:00:19:43.682
00:26:28.002                     : en:00:26:28.002
00:30:20.109                     : en:00:30:20.109
00:35:38.469                     : en:00:35:38.469
00:42:12.112                     : en:00:42:12.112
00:50:48.211                     : en:00:50:48.211
00:54:09.579                     : en:00:54:09.579
00:58:14.782                     : en:00:58:14.782
01:02:11.435                     : en:01:02:11.435
01:10:48.702                     : en:01:10:48.702
01:16:05.477                     : en:01:16:05.477
01:21:48.820                     : en:01:21:48.820
01:27:33.205                     : en:01:27:33.205
01:33:57.631                     : en:01:33:57.631

